# xmcd
#
# Track frame offsets:
#	182
#	22647
#	39690
#	53495
#	68217
#	85940
#	106920
#	124215
#	138852
#	156025
#	174225
#	195952
#	213485
#	231267
#
# Disc length: 3304 seconds
#
# Revision: 0
# Processed by: cddbd v1.5.1PL0 Copyright (c) Steve Scherf et al.
# Submitted via: dBpowerAMP V4.0
#
DISCID=ac0ce60e
DTITLE=Blue Blot - September
DYEAR=1993
DGENRE=Blues
TTITLE0=Bridge To Your Heart
TTITLE1=September
TTITLE2=Love Bug
TTITLE3=Dance To The Blunk
TTITLE4=New Blunk
TTITLE5=These Arms Of Mine
TTITLE6=Pretty Good
TTITLE7=Hold The Line
TTITLE8=No No No
TTITLE9=Where Do We Go From Here
TTITLE10=IRS Blues
TTITLE11=Take A Walk On The Moon
TTITLE12=Who Is He
TTITLE13=Simply Beautiful
EXTD=
EXTT0=
EXTT1=
EXTT2=
EXTT3=
EXTT4=
EXTT5=
EXTT6=
EXTT7=
EXTT8=
EXTT9=
EXTT10=
EXTT11=
EXTT12=
EXTT13=
PLAYORDER=
